<?xml version="1.0" encoding="utf-8"?>
<!-- Generator: Adobe Illustrator 25.0.0, SVG Export Plug-In . SVG Version: 6.00 Build 0)  -->
<svg version="1.1" id="Capa_1" xmlns="http://www.w3.org/2000/svg" xmlns:xlink="http://www.w3.org/1999/xlink" x="0px" y="0px"
	 viewBox="0 0 448 448" style="enable-background:new 0 0 448 448;" xml:space="preserve">
<style type="text/css">
	.st0{fill:#FFC107;}
</style>
<g>
	<path class="st0" d="M14,190L142,62c18.8-18.8,49.1-18.8,67.9,0c18.8,18.7,18.8,49.2,0,67.9l-94,94.1l94,94
		c18.8,18.8,18.8,49.1,0,67.9c-9.3,9.4-21.6,14.1-33.9,14.1s-24.6-4.7-34-14l-128-128C-4.7,239.2-4.7,208.8,14,190z"/>
	<path class="st0" d="M238,190L366,62c18.8-18.8,49.1-18.8,67.9,0c18.8,18.7,18.8,49.2,0,67.9l-94,94.1l94,94
		c18.8,18.8,18.8,49.1,0,67.9c-9.3,9.4-21.6,14.1-33.9,14.1s-24.6-4.7-34-14l-128-128C219.3,239.2,219.3,208.8,238,190z"/>
</g>
</svg>
